<svg xmlns="http://www.w3.org/2000/svg" viewBox="0 0 100 100">
  <!-- Sfondo bianco con bordi arrotondati -->
  <rect x="0" y="0" width="100" height="100" rx="18" ry="18" fill="#FFFFFF"/>
  <!-- G calligrafica elegante stile firma - identica allo screenshot -->
  <!-- Curva principale della G -->
  <path d="M75 18
           C72 15 65 12 55 12
           Q30 12 22 35
           Q15 55 22 72
           Q30 90 55 90
           Q68 90 78 82
           L78 80
           Q70 86 55 86
           Q35 86 27 70
           Q20 55 27 38
           Q35 18 55 18
           Q65 18 72 22
           L75 18 Z"
        fill="none" 
        stroke="#2a2a2a" 
        stroke-width="2.5"
        stroke-linecap="round"
        stroke-linejoin="round"/>
  <!-- Tratto orizzontale interno della G -->
  <path d="M50 52 Q65 52 78 52 L78 80"
        fill="none" 
        stroke="#2a2a2a" 
        stroke-width="2.5"
        stroke-linecap="round"
        stroke-linejoin="round"/>
  <!-- Ricciolo inferiore elegante della firma -->
  <path d="M55 90 
           Q45 92 38 88
           Q28 82 32 72"
        fill="none" 
        stroke="#2a2a2a" 
        stroke-width="2"
        stroke-linecap="round"/>
  <!-- Svolazzo superiore -->
  <path d="M75 18 Q82 14 88 16"
        fill="none" 
        stroke="#2a2a2a" 
        stroke-width="1.5"
        stroke-linecap="round"/>
</svg>
